<svg xmlns="http://www.w3.org/2000/svg" width="158.348" height="147.911" viewBox="0 0 158.348 147.911"><defs><style>.a,.b{fill:none;}.a,.b,.c{stroke:#008bff;stroke-linecap:round;stroke-width:4px;}.a{stroke-linejoin:round;}.b,.c{stroke-miterlimit:10;}.c{fill:#2d00ff;}</style></defs><g transform="translate(2 2)"><path class="a" d="M2929.745,506.507V532.3a6,6,0,0,1-6,6h0a6,6,0,0,1-6-6V506.507a32.1,32.1,0,1,1,12,0Z" transform="translate(-2891.662 -442.915)"/><line class="a" x2="5.199" transform="translate(26.08 63.592)"/><path class="b" d="M2926.663,472.915a9.17,9.17,0,1,1,13.513,8.072,8.459,8.459,0,0,0-4.347,7.476v3.714" transform="translate(-2903.748 -450.109)"/><path class="c" d="M2941.906,517.583a1.078,1.078,0,1,1-1.077-1.078A1.078,1.078,0,0,1,2941.906,517.583Z" transform="translate(-2908.747 -468.806)"/><g transform="translate(105.617 70.866)"><line class="a" y1="25.031" x2="13.749" transform="translate(6.774)"/><path class="a" d="M3086,583.068h0a4.45,4.45,0,0,1-4.451-4.451v-3.083a4.45,4.45,0,0,1,4.451-4.451h0a4.451,4.451,0,0,1,4.45,4.451v3.083A4.451,4.451,0,0,1,3086,583.068Z" transform="translate(-3062.847 -558.038)"/><path class="a" d="M3057.434,563.141h0a4.451,4.451,0,0,1-4.451-4.451v-3.082a4.451,4.451,0,0,1,4.451-4.451h0a4.451,4.451,0,0,1,4.451,4.451v3.082A4.451,4.451,0,0,1,3057.434,563.141Z" transform="translate(-3052.983 -551.157)"/></g><path class="b" d="M3000.155,610.783V541.925h20.567v68.858" transform="translate(-2929.125 -477.103)"/><path class="b" d="M2968.741,622.549v-45.8h20.567" transform="translate(-2918.277 -489.129)"/><path class="b" d="M3031.569,604.17h20.567v27.843" transform="translate(-2939.972 -498.596)"/><path class="b" d="M2940.664,601.559h112.3V514.448" transform="translate(-2908.582 -467.615)"/><path class="b" d="M3098.233,510.566l9.139-9.138,9.138,9.138" transform="translate(-2962.991 -463.119)"/><path class="b" d="M2935.844,651.822l-9.138-9.138,9.138-9.138" transform="translate(-2903.762 -508.74)"/></g></svg>