<svg xmlns="http://www.w3.org/2000/svg" width="169.312" height="174.058" viewBox="0 0 169.312 174.058"><defs><style>.a{fill:none;stroke:#008bff;stroke-linecap:round;stroke-miterlimit:10;stroke-width:4px;}</style></defs><g transform="translate(2 2)"><path class="a" d="M1135.662,1126.946l8.37,6.877a11.062,11.062,0,0,1,4.04,8.547v17.994a9.933,9.933,0,0,1-9.933,9.933h0" transform="translate(-1092.76 -1089.271)"/><path class="a" d="M1080.937,1126.946l-8.37,6.877a11.062,11.062,0,0,0-4.04,8.547v17.994a9.933,9.933,0,0,0,9.933,9.933h0" transform="translate(-1068.527 -1089.271)"/><path class="a" d="M1132.408,1155.278l.044,5.9v58.734a8.649,8.649,0,0,1-8.649,8.648h-2.717" transform="translate(-1087.499 -1099.497)"/><path class="a" d="M1084.781,1155.278l-.043,5.9v58.734a8.648,8.648,0,0,0,8.648,8.648h0a8.649,8.649,0,0,0,8.649-8.648v-34.263" transform="translate(-1074.379 -1099.497)"/><circle class="a" cx="17.384" cy="17.384" r="17.384" transform="translate(10.272)"/><g transform="translate(55 19)"><path class="a" d="M1135.662,1126.946l8.37,6.877a11.062,11.062,0,0,1,4.04,8.547v17.994a9.933,9.933,0,0,1-9.933,9.933h0" transform="translate(-1092.76 -1089.271)"/><path class="a" d="M1080.937,1126.946l-8.37,6.877a11.062,11.062,0,0,0-4.04,8.547v17.994a9.933,9.933,0,0,0,9.933,9.933h0" transform="translate(-1068.527 -1089.271)"/><path class="a" d="M1132.408,1155.278l.044,5.9v58.734a8.649,8.649,0,0,1-8.649,8.648h-2.717" transform="translate(-1087.499 -1099.497)"/><path class="a" d="M1084.781,1155.278l-.043,5.9v58.734a8.648,8.648,0,0,0,8.648,8.648h0a8.649,8.649,0,0,0,8.649-8.648v-34.263" transform="translate(-1074.379 -1099.497)"/><circle class="a" cx="17.384" cy="17.384" r="17.384" transform="translate(10.272)"/></g><g transform="translate(110 41)"><path class="a" d="M1135.662,1126.946l8.37,6.877a11.062,11.062,0,0,1,4.04,8.547v17.994a9.933,9.933,0,0,1-9.933,9.933h0" transform="translate(-1092.76 -1089.271)"/><path class="a" d="M1080.937,1126.946l-8.37,6.877a11.062,11.062,0,0,0-4.04,8.547v17.994a9.933,9.933,0,0,0,9.933,9.933h0" transform="translate(-1068.527 -1089.271)"/><path class="a" d="M1132.408,1155.278l.044,5.9v58.734a8.649,8.649,0,0,1-8.649,8.648h-2.717" transform="translate(-1087.499 -1099.497)"/><path class="a" d="M1084.781,1155.278l-.043,5.9v58.734a8.648,8.648,0,0,0,8.648,8.648h0a8.649,8.649,0,0,0,8.649-8.648v-34.263" transform="translate(-1074.379 -1099.497)"/><circle class="a" cx="17.384" cy="17.384" r="17.384" transform="translate(10.272)"/></g></g></svg>