<svg xmlns="http://www.w3.org/2000/svg" width="131.902" height="133.881" viewBox="0 0 131.902 133.881"><defs><style>.a,.b{fill:none;stroke:#008bff;stroke-linecap:round;stroke-width:4px;}.a{stroke-miterlimit:10;}.b{stroke-linejoin:round;}</style></defs><g transform="translate(2 2)"><path class="a" d="M1135.662,1126.946l8.37,6.877a11.062,11.062,0,0,1,4.04,8.547v17.994a9.933,9.933,0,0,1-9.933,9.933h0" transform="translate(-1092.76 -1089.271)"/><path class="a" d="M1080.937,1126.946l-8.37,6.877a11.062,11.062,0,0,0-4.04,8.547v17.994a9.933,9.933,0,0,0,9.933,9.933h0" transform="translate(-1068.527 -1089.271)"/><path class="a" d="M1132.408,1155.278l.044,5.9v58.734a8.649,8.649,0,0,1-8.649,8.648h-2.717" transform="translate(-1087.499 -1099.497)"/><path class="a" d="M1084.781,1155.278l-.043,5.9v58.734a8.648,8.648,0,0,0,8.648,8.648h0a8.649,8.649,0,0,0,8.649-8.648v-34.263" transform="translate(-1074.379 -1099.497)"/><circle class="a" cx="17.384" cy="17.384" r="17.384" transform="translate(10.272)"/><path class="b" d="M1138.871,1067.99h82.949v72.361h-65.236" transform="translate(-1093.918 -1067.99)"/><path class="b" d="M1184.8,1181.224v37.862l-16.686,18.834" transform="translate(-1104.475 -1108.863)"/><line class="b" x2="15.754" y2="18.834" transform="translate(80.328 110.224)"/><path class="b" d="M1168.6,1143.093l26.025-26.025,9.755,9.755,20.209-20.209" transform="translate(-1104.649 -1081.932)"/></g></svg>