<svg xmlns="http://www.w3.org/2000/svg" width="149.763" height="149.077" viewBox="0 0 149.763 149.077"><defs><style>.a{fill:none;stroke:#008bff;stroke-linecap:round;stroke-linejoin:round;stroke-width:4px;}</style></defs><g transform="translate(2 2)"><g transform="translate(19.108 18.081)"><path class="a" d="M943.144,1830.828h107.529" transform="translate(-943.144 -1777.055)"/><path class="a" d="M990.813,1795.086h0v40.369" transform="translate(-937.048 -1781.626)"/><path class="a" d="M990.819,1783.152q1.059,0,2.109.041a53.9,53.9,0,0,1,51.664,53.87" transform="translate(-937.048 -1783.152)"/><path class="a" d="M943.144,1832.377a53.932,53.932,0,0,1,1.638-13.225" transform="translate(-943.144 -1778.548)"/><path class="a" d="M966.284,1819.153a82.091,82.091,0,0,0-1.019,13.168" transform="translate(-940.315 -1778.548)"/><path class="a" d="M990.819,1783.152c6.8,3.747,28.826,18.772,28.826,53.772" transform="translate(-937.048 -1783.152)"/><path class="a" d="M992.422,1810.532a68.714,68.714,0,0,1-14.187-1.376" transform="translate(-938.657 -1779.827)"/><path class="a" d="M1028.21,1796.567s-7.69,15.575-37.384,15.575" transform="translate(-937.047 -1781.437)"/><line class="a" y1="41.797" transform="translate(53.78 53.773)"/><path class="a" d="M1011.331,1882.7a53.819,53.819,0,0,1-68.187-51.819" transform="translate(-943.144 -1777.049)"/><path class="a" d="M1015.279,1845.324a81.065,81.065,0,0,0,1.238-14.446" transform="translate(-933.92 -1777.049)"/><path class="a" d="M994.087,1884.65s-28.822-11.508-28.822-53.772" transform="translate(-940.315 -1777.049)"/><path class="a" d="M1005.3,1852.768a68.417,68.417,0,0,0-14.477-1.438" transform="translate(-937.047 -1774.434)"/><path class="a" d="M957.667,1866.905s7.692-15.575,37.385-15.575" transform="translate(-941.287 -1774.434)"/></g><path class="a" d="M1043.534,1854.152a2.826,2.826,0,0,1-2.307-4.466c.055-.077.112-.151.169-.226a5.856,5.856,0,1,0-9.137.146l.031.038a2.758,2.758,0,0,1-2.132,4.508h-17.533v17.717a2.686,2.686,0,0,0,4.311,2.164l.037-.031a5.853,5.853,0,1,1,.146,9.138c-.073-.056-.148-.113-.223-.167a2.7,2.7,0,0,0-4.27,2.2v17.7h48.286v-48.724Z" transform="translate(-915.151 -1757.799)"/><path class="a" d="M985.351,1785.091a6.406,6.406,0,0,0-5.2,1.375h0a3.289,3.289,0,0,1-5.377-2.542v-16.8H957.053a2.05,2.05,0,0,0-1.652,3.289l.024.029a6.408,6.408,0,1,1-10,.159c.056-.072.112-.146.166-.22a2.06,2.06,0,0,0-1.682-3.257H926.2v48.567h17.955a1.829,1.829,0,0,0,1.412-2.993l-.021-.027a6.407,6.407,0,1,1,10.005-.159c-.055.071-.109.142-.162.215a1.873,1.873,0,0,0,1.525,2.964h17.855V1799a3.338,3.338,0,0,1,5.281-2.717c.086.063.172.126.255.192a6.41,6.41,0,1,0,5.045-11.379Z" transform="translate(-926.202 -1767.121)"/></g></svg>