<svg xmlns="http://www.w3.org/2000/svg" width="139.138" height="149.444" viewBox="0 0 139.138 149.444"><defs><style>.a{fill:none;stroke:#008bff;stroke-linecap:round;stroke-miterlimit:10;stroke-width:4px;}</style></defs><g transform="translate(2.004 2.808)"><g transform="translate(60.223 106.124)"><path class="a" d="M1459.837,607.3c.045,16.3,7.56,20.292,7.56,20.292s7.516-3.988,7.561-20.292" transform="translate(-1459.837 -602.357)"/><line class="a" y2="9.283" transform="translate(7.598)"/></g><path class="a" d="M1443.535,536.014a91.916,91.916,0,0,1-5.208-14.985q-.261-1.059-.494-2.107c-10.321-46.547,21.566-77.976,21.566-77.976s31.89,31.429,21.57,77.976q-.232,1.049-.494,2.107a91.939,91.939,0,0,1-5.208,14.985" transform="translate(-1391.618 -440.945)"/><path class="a" d="M1499.838,555.153c17.978,16.191,1.652,39.1,1.652,39.1-9.145,13.724-9.4,13.766-9.839,15.893-1.343,6.512,4.3,13.312,11.356,13.393h29.326a12.794,12.794,0,0,0,12.878-11.514,12.542,12.542,0,0,0-9.312-13.155,7.918,7.918,0,0,0,.069-.981,7.69,7.69,0,0,0-9.7-7.452c0-.04.007-.078.007-.117a7.566,7.566,0,0,0-13.311-4.929" transform="translate(-1410.121 -478.902)"/><path class="a" d="M1415.048,555.153c-17.978,16.191-1.652,39.1-1.652,39.1,9.145,13.724,9.4,13.766,9.839,15.893,1.343,6.512-4.3,13.312-11.357,13.393h-29.325a12.793,12.793,0,0,1-12.878-11.514,12.542,12.542,0,0,1,9.311-13.155,8.038,8.038,0,0,1-.069-.981,7.69,7.69,0,0,1,9.7-7.452c0-.04-.007-.078-.007-.117a7.566,7.566,0,0,1,13.312-4.929" transform="translate(-1369.635 -478.902)"/><circle class="a" cx="10.754" cy="10.754" r="10.754" transform="matrix(0.902, -0.432, 0.432, 0.902, 53.44, 52.382)"/><path class="a" d="M1477.982,470.586a21.968,21.968,0,0,1-27.162,0" transform="translate(-1396.617 -450.796)"/><path class="a" d="M1446.022,605.541c-.023-.094-.045-.188-.067-.282a13.041,13.041,0,0,1,9.812-15.526,29.548,29.548,0,0,1,13.553,0,13.043,13.043,0,0,1,9.812,15.531c-.021.092-.043.184-.066.277" transform="translate(-1394.891 -490.133)"/></g></svg>