<svg xmlns="http://www.w3.org/2000/svg" width="138.818" height="188.058" viewBox="0 0 138.818 188.058"><defs><style>.a{fill:none;stroke:#008bff;stroke-linecap:round;stroke-linejoin:round;stroke-width:4px;}</style></defs><g transform="translate(2 2)"><g transform="translate(28.361 131.928)"><path class="a" d="M1743.15,2464.914l-39.047-7.192v-44.937l39.047,7.192Z" transform="translate(-1704.103 -2412.784)"/><path class="a" d="M1773.615,2457.721l-39.049,7.192v-44.937l39.049-7.192Z" transform="translate(-1695.519 -2412.784)"/><line class="a" y1="3.4" x2="20.009" transform="translate(48.972 17.08)"/><line class="a" y1="3.4" x2="20.009" transform="translate(48.972 25.834)"/></g><g transform="translate(0 46.847)"><path class="a" d="M1777.451,2468.112h20.671l-5.258-41.229a25.948,25.948,0,0,0-8.892-14.867,21.22,21.22,0,0,0-8.713-4.574l-22.476-6.525a4.9,4.9,0,0,1-3.5-4.135l-1.037-8.894a38.35,38.35,0,0,0,13.183-20.721c4.012-.355,7.095-4.818,7.095-10.451,0-5.2-2.614-9.412-6.195-10.31" transform="translate(-1663.304 -2346.406)"/><path class="a" d="M1717.578,2346.45c-3.48.993-6,5.141-6,10.254,0,5.626,3.065,10.084,7.073,10.45a38.51,38.51,0,0,0,13.188,20.721l-1.027,8.893a4.9,4.9,0,0,1-3.5,4.136l-22.4,6.5a21.226,21.226,0,0,0-8.784,4.6,25.872,25.872,0,0,0-8.9,14.867l-5.258,41.229h20.671" transform="translate(-1681.976 -2346.394)"/></g><path class="a" d="M1713.632,2331.351c-4.736,6.938-3.866,19.353-3.866,19.353" transform="translate(-1674.164 -2303.801)"/><path class="a" d="M1759.68,2349.723a50.083,50.083,0,0,0-2.029-15.089" transform="translate(-1660.654 -2302.876)"/><g transform="translate(43.753 45.613)"><rect class="a" width="17.69" height="11.332" rx="1.404"/><rect class="a" width="17.69" height="11.332" rx="1.404" transform="translate(29.615)"/><line class="a" x2="11.925" transform="translate(17.69 4.169)"/></g><line class="a" x2="8.151" y2="2.357" transform="translate(35.602 46.903)"/><line class="a" y1="2.413" x2="7.969" transform="translate(91.057 46.847)"/><path class="a" d="M1756.93,2384.083,1738.6,2400.5l-18.333-16.416" transform="translate(-1671.188 -2288.943)"/><path class="a" d="M1712.768,2337.407c.125-14.085,12-22.123,23.1-23.586,2.733-.36,11.843-1.426,18.1-3.965l.055.089a4.769,4.769,0,0,1,.375,4.345h0a26.1,26.1,0,0,0,17.951-1.428c.068,4.09.186,12.32-1.463,16.064a14.48,14.48,0,0,1-8.6,8.216,18.514,18.514,0,0,1-7.82.3c-5.248-.695-10.34-2.256-15.538-3.258s-10.659-1.429-15.719.126" transform="translate(-1673.3 -2309.857)"/><path class="a" d="M1755.528,2320.362a8.18,8.18,0,0,1-5.66,5.537c-2.667.7-5.479,0-8.146-.708" transform="translate(-1665.142 -2306.897)"/></g></svg>