<svg xmlns="http://www.w3.org/2000/svg" xmlns:xlink="http://www.w3.org/1999/xlink" width="2160.947" height="895.055" viewBox="0 0 2160.947 895.055"><defs><style>.a{fill:#008bff;}.b{filter:url(#c);}.c{filter:url(#a);}</style><filter id="a" x="40" y="40" width="2120.947" height="830.51" filterUnits="userSpaceOnUse"><feOffset dx="20" dy="20" input="SourceAlpha"/><feGaussianBlur stdDeviation="20" result="b"/><feFlood flood-color="#017adf"/><feComposite operator="in" in2="b"/><feComposite in="SourceGraphic"/></filter><filter id="c" x="0" y="0" width="2120.947" height="830.51" filterUnits="userSpaceOnUse"><feOffset dx="-20" dy="-20" input="SourceAlpha"/><feGaussianBlur stdDeviation="20" result="d"/><feFlood flood-color="#2ea0ff"/><feComposite operator="in" in2="d"/><feComposite in="SourceGraphic"/></filter></defs><g transform="translate(80 17.055)"><rect class="a" width="1920" height="878" transform="translate(40.573)"/><g class="c" transform="matrix(1, 0, 0, 1, -80, -17.05)"><path class="a" d="M-778,57.141c53.171,0,99.751-28.878,127.435-72.432l-53.611-40.24c-15.819,26.511-39.109,42.607-71.188,42.607-51.853,0-87.007-45.447-87.007-99.416s36.473-98,87.447-98c31.639,0,54.929,16.1,70.748,42.607l53.611-40.24C-678.249-251.522-724.828-280.4-778-280.4c-85.249,0-153.8,76.219-153.8,168.061C-931.8-19.551-863.249,57.141-778,57.141Zm306.283,0c85.25,0,154.24-76.692,154.24-169.007S-386.467-280.4-471.716-280.4c-86.568,0-154.68,76.219-154.68,168.534S-558.284,57.141-471.716,57.141Zm-.439-70.065c-50.974,0-84.81-44.5-84.81-98.943s33.836-98.469,84.81-98.469c50.534,0,85.25,44.027,85.25,98.469S-421.621-12.923-472.156-12.923ZM-105.67-89.616l-96.675-185.1h-63.278V51.46h68.991V-136.01L-97.321,51.46H-36.68V-274.719H-105.67ZM6.824-274.719v64.857H86.8V51.46h68.991V-209.862h79.976v-64.857ZM348.261-75.887H458.119v-66.751H348.261v-67.224H473.5v-64.857H279.271V51.46H477.454V-13.4H348.261ZM693.654-89.616l-96.675-185.1H533.7V51.46h68.991V-136.01L702,51.46h60.641V-274.719H693.654Zm112.494-185.1v64.857h79.976V51.46h68.991V-209.862h79.976v-64.857ZM-558.5,98.249h-58.884l-87.007,204.04L-792.72,98.249h-57.566l-37.352,326.18h70.748l20.214-185.1,65.915,147.7h52.732l65.914-148.177,19.774,185.577h70.748ZM-207.4,424.429-319.014,98.249h-75.143l-112.055,326.18h73.824l22.411-75.746h106.342l22.85,75.746ZM-357.245,169.261-322.969,284.3h-68.112ZM-46.128,430.11c53.171,0,99.751-28.878,127.435-72.432L27.7,317.438c-15.82,26.511-39.109,42.607-71.188,42.607-51.853,0-87.007-45.447-87.007-99.416s36.473-98,87.447-98c31.639,0,54.929,16.1,70.748,42.607L81.307,165C53.623,121.446,7.043,92.568-46.128,92.568c-85.25,0-153.8,76.219-153.8,168.061C-199.928,353.417-131.377,430.11-46.128,430.11Zm341-201.2H195.12V98.249H126.129v326.18H195.12V295.661H294.87V424.429h68.991V98.249H294.87ZM502.721,424.429V98.249H433.73v326.18ZM732.543,283.352l-96.675-185.1H572.591v326.18h68.991V236.958l99.311,187.47h60.641V98.249H732.543Zm207.411,13.729h109.858V230.331H939.954V163.106h125.238V98.249H870.964v326.18h198.183V359.571H939.954Z" transform="translate(1011.8 360.4)"/></g><g class="b" transform="matrix(1, 0, 0, 1, -80, -17.05)"><path class="a" d="M-778,57.141c53.171,0,99.751-28.878,127.435-72.432l-53.611-40.24c-15.819,26.511-39.109,42.607-71.188,42.607-51.853,0-87.007-45.447-87.007-99.416s36.473-98,87.447-98c31.639,0,54.929,16.1,70.748,42.607l53.611-40.24C-678.249-251.522-724.828-280.4-778-280.4c-85.249,0-153.8,76.219-153.8,168.061C-931.8-19.551-863.249,57.141-778,57.141Zm306.283,0c85.25,0,154.24-76.692,154.24-169.007S-386.467-280.4-471.716-280.4c-86.568,0-154.68,76.219-154.68,168.534S-558.284,57.141-471.716,57.141Zm-.439-70.065c-50.974,0-84.81-44.5-84.81-98.943s33.836-98.469,84.81-98.469c50.534,0,85.25,44.027,85.25,98.469S-421.621-12.923-472.156-12.923ZM-105.67-89.616l-96.675-185.1h-63.278V51.46h68.991V-136.01L-97.321,51.46H-36.68V-274.719H-105.67ZM6.824-274.719v64.857H86.8V51.46h68.991V-209.862h79.976v-64.857ZM348.261-75.887H458.119v-66.751H348.261v-67.224H473.5v-64.857H279.271V51.46H477.454V-13.4H348.261ZM693.654-89.616l-96.675-185.1H533.7V51.46h68.991V-136.01L702,51.46h60.641V-274.719H693.654Zm112.494-185.1v64.857h79.976V51.46h68.991V-209.862h79.976v-64.857ZM-558.5,98.249h-58.884l-87.007,204.04L-792.72,98.249h-57.566l-37.352,326.18h70.748l20.214-185.1,65.915,147.7h52.732l65.914-148.177,19.774,185.577h70.748ZM-207.4,424.429-319.014,98.249h-75.143l-112.055,326.18h73.824l22.411-75.746h106.342l22.85,75.746ZM-357.245,169.261-322.969,284.3h-68.112ZM-46.128,430.11c53.171,0,99.751-28.878,127.435-72.432L27.7,317.438c-15.82,26.511-39.109,42.607-71.188,42.607-51.853,0-87.007-45.447-87.007-99.416s36.473-98,87.447-98c31.639,0,54.929,16.1,70.748,42.607L81.307,165C53.623,121.446,7.043,92.568-46.128,92.568c-85.25,0-153.8,76.219-153.8,168.061C-199.928,353.417-131.377,430.11-46.128,430.11Zm341-201.2H195.12V98.249H126.129v326.18H195.12V295.661H294.87V424.429h68.991V98.249H294.87ZM502.721,424.429V98.249H433.73v326.18ZM732.543,283.352l-96.675-185.1H572.591v326.18h68.991V236.958l99.311,187.47h60.641V98.249H732.543Zm207.411,13.729h109.858V230.331H939.954V163.106h125.238V98.249H870.964v326.18h198.183V359.571H939.954Z" transform="translate(1011.8 360.4)"/></g></g></svg>