<svg xmlns="http://www.w3.org/2000/svg" width="48.81" height="54.704" viewBox="0 0 48.81 54.704"><defs><style>.a{fill:none;stroke:#008bff;stroke-linecap:round;stroke-linejoin:round;stroke-width:2px;}</style></defs><g transform="translate(1.024 1)"><path class="a" d="M-324.746,655.888h8.277a3.4,3.4,0,0,1,3.4,3.4v27.1a3.4,3.4,0,0,1-3.4,3.4h-38.865a3.4,3.4,0,0,1-3.4-3.4v-27.1a3.4,3.4,0,0,1,3.4-3.4h30.588" transform="translate(359.282 -655.888)"/><path class="a" d="M-319.206,795.275l-2.076,5.247h27.448l-2.076-5.247" transform="translate(330.939 -761.369)"/><path class="a" d="M-318.4,833.2l3.974,7.171a1.617,1.617,0,0,1-1.415,2.4h-43.522a1.617,1.617,0,0,1-1.415-2.4l3.974-7.171Z" transform="translate(360.982 -790.072)"/></g></svg>