<svg xmlns="http://www.w3.org/2000/svg" width="47.002" height="47.614" viewBox="0 0 47.002 47.614"><defs><style>.a,.b{fill:none;stroke:#008bff;stroke-linecap:round;stroke-width:2px;}.a{stroke-linejoin:round;}.b{stroke-miterlimit:10;}</style></defs><g transform="translate(1 1)"><path class="a" d="M488.57,754.975a3.163,3.163,0,0,0-3.163,3.163v15.528l3.051-2.963h8.487l1.748,2.963,1.838-2.963h8.487l3.051,2.963V758.138a3.163,3.163,0,0,0-3.163-3.163Z" transform="translate(-476.237 -754.975)"/><g transform="translate(0 23.7)"><g transform="translate(0 9.805)"><g transform="translate(30.001)"><path class="a" d="M633.7,906.846l3.116,2.71v9.3" transform="translate(-621.817 -906.846)"/><line class="a" x1="3.116" y2="2.71"/></g><path class="a" d="M446.957,906.846l-3.116,2.71v9.3" transform="translate(-443.842 -906.846)"/><line class="a" x2="3.116" y2="2.71" transform="translate(11.885)"/><g transform="translate(15.001)"><line class="a" x1="3.116" y2="2.71"/><path class="a" d="M565.708,906.846l3.116,2.71v9.3" transform="translate(-553.823 -906.846)"/></g><line class="b" y2="9.399" transform="translate(15.001 2.71)"/></g><ellipse class="b" cx="4.307" cy="4.903" rx="4.307" ry="4.903" transform="translate(33.195)"/><ellipse class="b" cx="4.307" cy="4.903" rx="4.307" ry="4.903" transform="translate(18.195)"/><ellipse class="b" cx="4.307" cy="4.903" rx="4.307" ry="4.903" transform="translate(3.194)"/></g></g></svg>