<svg xmlns="http://www.w3.org/2000/svg" width="253.008" height="253.008" viewBox="0 0 253.008 253.008"><defs><style>.a{fill:#00deff;}</style></defs><path class="a" d="M104.722,196.244a95.722,95.722,0,0,1,0-191.444,94.506,94.506,0,0,1,67.059,27.581A10.134,10.134,0,0,1,157.45,46.712a75.4,75.4,0,1,0-52.728,129.251,74.428,74.428,0,0,0,53.269-22.173,9.961,9.961,0,0,1,14.331,0h0a9.961,9.961,0,0,1,0,14.331A94.685,94.685,0,0,1,104.722,196.244Z" transform="translate(120.607 262.766) rotate(-135)"/></svg>