<svg version="1.1" id="smcm-triangle-chart" xmlns="http://www.w3.org/2000/svg" xmlns:xlink="http://www.w3.org/1999/xlink" x="0px" y="0px" viewBox="0 0 557 519" style="enable-background:new 0 0 557 519;" xml:space="preserve">

<!-- triangle one -->
<path class="triangle triangle--one" d="M380.5,0c15.3,0,24.9,16.6,17.3,29.9L294.1,209.5c-7.7,13.3-26.9,13.3-34.5,0L155.9,29.9
	C148.3,16.6,157.9,0,173.2,0H380.5z" data-number="0"></path>
<g>
	<path data-number="0" class="triangle-name triangle-name--one" d="M239.1,81.8c-2,0-3.5-1.7-3.5-3.7s1.5-3.7,3.5-3.7c1.2,0,2.2,0.6,2.8,1.4l1.6-1.2c-0.9-1.4-2.5-2.2-4.4-2.2
		c-3.2,0-5.6,2.6-5.6,5.7c0,3.2,2.5,5.7,5.6,5.7c1.9,0,3.5-0.8,4.5-2.2l-1.6-1.3C241.3,81.2,240.3,81.8,239.1,81.8z"></path>
	<polygon data-number="0" class="triangle-name triangle-name--one" points="246.1,74.5 251.2,74.5 245.8,82.1 245.8,83.7 253.8,83.7 253.8,81.9 248.4,81.9 253.8,74.3 
		253.8,72.7 246.1,72.7 	"></polygon>
	<polygon data-number="0" class="triangle-name triangle-name--one" points="259.4,77.5 261,76.5 261,75.1 259.4,76.1 259.4,72.6 257.4,72.6 257.4,77.4 256.3,78.1 256.3,79.5 
		257.4,78.8 257.4,83.7 263.7,83.7 263.7,81.8 259.4,81.8 	"></polygon>
	<path data-number="0" class="triangle-name triangle-name--one" d="M271.4,72.5c-3.1,0-5.6,2.6-5.6,5.7c0,3.2,2.5,5.7,5.6,5.7c3.1,0,5.6-2.6,5.6-5.7
		C277,75,274.5,72.5,271.4,72.5z M271.4,81.8c-2,0-3.6-1.6-3.6-3.6c0-2,1.6-3.6,3.6-3.6c2,0,3.6,1.6,3.6,3.6
		C275,80.2,273.4,81.8,271.4,81.8z"></path>
	<polygon data-number="0" class="triangle-name triangle-name--one" points="288.5,80.4 286.8,74.3 285.2,74.3 283.5,80.4 281.1,72.7 278.9,72.7 282.6,83.7 284.3,83.7 286,77.4 
		287.7,83.7 289.3,83.7 293,72.7 290.8,72.7 	"></polygon>
	<rect data-number="0" x="295.7" y="72.7" class="triangle-name triangle-name--one" width="2" height="11"></rect>
	<polygon data-number="0" class="triangle-name triangle-name--one" points="303.7,79.2 307.9,79.2 307.9,77.4 303.7,77.4 303.7,74.5 308.5,74.5 308.5,72.7 301.8,72.7 
		301.7,83.7 308.6,83.7 308.6,81.9 303.7,81.9 	"></polygon>
	<polygon data-number="0" class="triangle-name triangle-name--one" points="315.3,78.2 319.5,72.7 317.1,72.7 314.1,76.7 314.1,72.7 312,72.7 312,83.7 314.1,83.7 314.1,79.6 
		317.8,83.7 320.5,83.7 	"></polygon>
</g>
<!-- triangle one END -->

<!-- triangle two -->
<path class="triangle triangle--two" d="M329.6,250c-15.3,0-24.9-16.6-17.3-29.9L416,40.4c7.7-13.3,26.9-13.3,34.5,0l103.7,179.6
	c7.7,13.3-1.9,29.9-17.3,29.9H329.6z" data-number="1"></path>
<g>
	<polygon data-number="1" class="triangle-name triangle-name--two" points="388.2,164.2 385.8,164.2 382.8,168.2 382.8,164.2 380.7,164.2 380.7,175.2 382.8,175.2 382.8,171.1 
		386.5,175.2 389.2,175.2 384,169.7 	"></polygon>
	<polygon data-number="1" class="triangle-name triangle-name--two" points="399.7,164.2 397.7,164.2 397.7,171.4 393.5,164.2 391.6,164.2 391.6,175.2 393.6,175.2 393.6,167.9 
		397.9,175.2 399.7,175.2 	"></polygon>
	<path data-number="1" class="triangle-name triangle-name--two" d="M414.3,169.7c0-3.2-2.5-5.7-5.6-5.7s-5.6,2.5-5.6,5.7c0,3.2,2.5,5.7,5.6,5.7S414.3,172.8,414.3,169.7z
		 M408.7,173.3c-2,0-3.6-1.6-3.6-3.6s1.6-3.6,3.6-3.6s3.6,1.6,3.6,3.6S410.7,173.3,408.7,173.3z"></path>
	<polygon data-number="1" class="triangle-name triangle-name--two" points="425.8,171.8 424.1,165.7 422.5,165.7 420.8,171.8 418.4,164.1 416.2,164.1 419.9,175.1 421.6,175.1 
		423.3,168.8 425,175.1 426.6,175.1 430.3,164.1 428.1,164.1 	"></polygon>
	<polygon data-number="1" class="triangle-name triangle-name--two" points="439.4,173.3 435.1,173.3 435.1,164.1 433.1,164.1 433.1,175.1 439.4,175.1 	"></polygon>
	<polygon data-number="1" class="triangle-name triangle-name--two" points="449.3,173.3 444.4,173.3 444.4,170.6 448.6,170.6 448.6,168.8 444.4,168.8 444.4,165.9 449.2,165.9 
		449.2,164.1 442.4,164.1 442.3,164.1 442.3,175.1 449.3,175.1 	"></polygon>
	<path data-number="1" class="triangle-name triangle-name--two" d="M462.2,169.7c0-3.1-1.8-5.5-5-5.5h-4.3v11h4.3C460.4,175.2,462.2,172.8,462.2,169.7z M454.9,166h2.3
		c1.9,0,2.9,1.7,2.9,3.7s-0.9,3.6-2.9,3.6h-2.3V166z"></path>
	<path data-number="1" class="triangle-name triangle-name--two" d="M470.4,171.1h3c-0.1,1.4-1.5,2.3-3,2.3c-2,0-3.6-1.8-3.6-3.8s1.6-3.7,3.6-3.7c1,0,1.9,0.4,2.5,1.1l1.6-1.4
		c-1-1-2.4-1.7-4-1.7c-3.1,0-5.6,2.6-5.6,5.7c0,3.2,2.4,5.7,5.6,5.7c3.1,0,5.3-1.9,5.3-5.9h-5.4V171.1z"></path>
	<polygon data-number="1" class="triangle-name triangle-name--two" points="480.8,173.3 480.8,170.6 485,170.6 485,168.8 480.8,168.8 480.8,165.9 485.6,165.9 485.6,164.1 
		478.8,164.1 478.7,164.1 478.7,175.1 485.7,175.1 485.7,173.3 	"></polygon>
	<path data-number="1" class="triangle-name triangle-name--two" d="M403.7,195.3c-2,0-3.5-1.7-3.5-3.7s1.5-3.7,3.5-3.7c1.2,0,2.2,0.6,2.8,1.4l1.6-1.2c-0.9-1.4-2.5-2.2-4.4-2.2
		c-3.2,0-5.6,2.6-5.6,5.7c0,3.2,2.5,5.7,5.6,5.7c1.9,0,3.5-0.8,4.5-2.2l-1.6-1.3C405.9,194.7,404.9,195.3,403.7,195.3z"></path>
	<polygon data-number="1" class="triangle-name triangle-name--two" points="413.2,192.6 417.4,192.6 417.4,190.8 413.2,190.8 413.2,187.9 418,187.9 418,186.1 411.2,186.1 
		411.1,197.1 418.1,197.1 418.1,195.3 413.2,195.3 	"></polygon>
	<polygon data-number="1" class="triangle-name triangle-name--two" points="427.7,186.2 427.7,193.4 423.5,186.2 421.6,186.2 421.6,197.2 423.6,197.2 423.6,189.9 427.9,197.2 
		429.7,197.2 429.7,186.2 	"></polygon>
	<polygon data-number="1" class="triangle-name triangle-name--two" points="432.9,188 436,188 436,197.2 438.1,197.2 438.1,188 441.2,188 441.2,186.1 432.9,186.1 	"></polygon>
	<polygon data-number="1" class="triangle-name triangle-name--two" points="446.3,192.6 450.5,192.6 450.5,190.8 446.3,190.8 446.3,187.9 451.1,187.9 451.1,186.1 444.3,186.1 
		444.2,186.1 444.2,197.1 451.2,197.1 451.2,195.3 446.3,195.3 	"></polygon>
	<path data-number="1" class="triangle-name triangle-name--two" d="M462.6,189.8c0-1.8-1.1-3.6-3.5-3.6h-4.4v11h2v-3.9h0.9l2.6,3.9h2.5l-2.9-3.9
		C461.8,192.9,462.6,191.4,462.6,189.8z M456.7,191.5v-3.4h2.3c1,0,1.5,0.9,1.5,1.7c0,0.8-0.5,1.7-1.6,1.7H456.7z"></path>
</g>
<!-- triangle two END -->

<!-- triangle three -->
<path class="triangle triangle--three active" d="M537,270.5c15.3,0,24.9,16.6,17.3,29.9L450.6,480c-7.7,13.3-26.9,13.3-34.5,0L312.5,300.4
	c-7.7-13.3,1.9-29.9,17.3-29.9H537z" data-number="2"></path>
<g>
	<polygon data-number="2" class="triangle-name triangle-name--three active" points="385.7,320.5 382.3,328 378.8,320.5 377.1,320.5 375.7,331.5 377.7,331.5 378.6,324.2 381.5,330.3 
		383.1,330.3 386,324.2 386.8,331.5 388.8,331.5 387.5,320.5 	"></polygon>
	<rect data-number="2" x="392.2" y="320.5" class="triangle-name triangle-name--three active" width="2" height="11"></rect>
	<polygon data-number="2" class="triangle-name triangle-name--three active" points="405.7,320.5 403.3,320.5 400.3,324.5 400.3,320.5 398.2,320.5 398.2,331.5 400.3,331.5 400.3,327.4 
		404,331.5 406.7,331.5 401.5,326 	"></polygon>
	<path data-number="2" class="triangle-name triangle-name--three active" d="M417.1,324.1c0-1.8-1.1-3.6-3.5-3.6h-4.4v11h2v-3.9h0.8l2.6,3.9h2.5l-2.8-3.9
		C416.3,327.2,417.1,325.7,417.1,324.1z M413.4,325.8h-2.2v-3.4h2.3c1,0,1.5,0.9,1.5,1.7C415,324.9,414.5,325.8,413.4,325.8z"></path>
	<path data-number="2" class="triangle-name triangle-name--three active" d="M425.4,320.4c-3.1,0-5.6,2.5-5.6,5.7s2.5,5.7,5.6,5.7s5.6-2.6,5.6-5.7C431,322.9,428.5,320.4,425.4,320.4z
		 M425.4,329.7c-2,0-3.6-1.6-3.6-3.6s1.6-3.6,3.6-3.6s3.6,1.6,3.6,3.6S427.4,329.7,425.4,329.7z"></path>
	<polygon data-number="2" class="triangle-name triangle-name--three active" points="433.1,322.4 436.2,322.4 436.2,331.6 438.3,331.6 438.3,322.4 441.4,322.4 441.4,320.5 433.1,320.5 	
		"></polygon>
	<path data-number="2" class="triangle-name triangle-name--three active" d="M452.5,324.1c0-1.8-1.1-3.6-3.5-3.6h-4.4v11h2v-3.9h0.8l2.6,3.9h2.5l-2.8-3.9
		C451.7,327.2,452.5,325.7,452.5,324.1z M448.8,325.8h-2.2v-3.4h2.3c1,0,1.5,0.9,1.5,1.7C450.4,324.9,449.9,325.8,448.8,325.8z"></path>
	<polygon data-number="2" class="triangle-name triangle-name--three active" points="457.9,327 462.1,327 462.1,325.2 457.9,325.2 457.9,322.3 462.7,322.3 462.7,320.5 455.9,320.5 
		455.8,320.5 455.8,331.5 462.8,331.5 462.8,329.7 457.9,329.7 	"></polygon>
	<polygon data-number="2" class="triangle-name triangle-name--three active" points="472.2,316.7 470.2,316.7 468.5,319.3 470,319.3 	"></polygon>
	<path data-number="2" class="triangle-name triangle-name--three active" d="M470.4,325.3l-1.4-0.4c-1.2-0.4-1.3-0.9-1.3-1.3c0-0.8,0.7-1.3,1.6-1.3c1,0,1.6,0.5,1.6,1.4h2
		c0-2-1.6-3.3-3.7-3.3c-2,0-3.7,1.3-3.7,3.2c0,1,0.4,2.4,2.8,3.1l1.4,0.4c1.1,0.3,1.5,0.8,1.5,1.5c0,0.7-0.7,1.3-1.8,1.3
		c-1.2,0-1.9-0.8-1.9-1.6v0.1h-2c0,1.9,1.6,3.4,4,3.4c2,0,3.8-1.1,3.9-3.1C473.5,327.4,472.9,326,470.4,325.3z"></path>
	<path data-number="2" class="triangle-name triangle-name--three active" d="M481.5,329.6c-2,0-3.5-1.7-3.5-3.7s1.5-3.7,3.5-3.7c1.2,0,2.2,0.6,2.8,1.4l1.6-1.2c-0.9-1.4-2.5-2.2-4.4-2.2
		c-3.2,0-5.6,2.6-5.6,5.7c0,3.2,2.5,5.7,5.6,5.7c1.9,0,3.5-0.8,4.5-2.2l-1.6-1.3C483.7,329,482.7,329.6,481.5,329.6z"></path>
	<rect data-number="2" x="489" y="320.5" class="triangle-name triangle-name--three active" width="2" height="11"></rect>
</g>

<!-- triangle three END -->

<!-- triangle four -->
<path class="triangle triangle--four" d="M173.2,519c-15.3,0-24.9-16.6-17.3-29.9l103.7-179.6c7.7-13.3,26.9-13.3,34.5,0l103.7,179.6
	c7.7,13.3-1.9,29.9-17.3,29.9H173.2z" data-number="3"></path>
<g>
	<path data-number="3" class="triangle-name triangle-name--four" d="M222.2,426.5h-4.3v11h4.3c3.2,0,5-2.4,5-5.5S225.4,426.5,222.2,426.5z M222.2,435.6h-2.3v-7.3h2.3
		c1.9,0,2.9,1.7,2.9,3.7S224.2,435.6,222.2,435.6z"></path>
	<polygon data-number="3" class="triangle-name triangle-name--four" points="233.7,430.7 230.9,426.5 228.5,426.5 232.7,432.5 232.7,437.5 234.7,437.5 234.7,432.5 239,426.5 
		236.6,426.5 	"></polygon>
	<path data-number="3" class="triangle-name triangle-name--four" d="M245.6,431.3l-1.4-0.4c-1.2-0.4-1.3-0.9-1.3-1.3c0-0.8,0.7-1.3,1.6-1.3c1,0,1.6,0.5,1.6,1.4h2
		c0-2-1.6-3.3-3.7-3.3c-2,0-3.7,1.3-3.7,3.2c0,1,0.4,2.4,2.8,3.1l1.4,0.4c1.1,0.3,1.5,0.8,1.5,1.5s-0.7,1.3-1.8,1.3
		c-1.2,0-1.9-0.8-1.9-1.6v0.1h-2c0,1.9,1.6,3.4,4,3.4c2,0,3.8-1.1,3.9-3.1C248.7,433.4,248.1,432,245.6,431.3z"></path>
	<polygon data-number="3" class="triangle-name triangle-name--four" points="250.8,428.3 253.9,428.3 253.9,437.5 256,437.5 256,428.3 259.1,428.3 259.1,426.4 250.8,426.4 	"></polygon>
	<path data-number="3" class="triangle-name triangle-name--four" d="M270.2,430.1c0-1.8-1.1-3.6-3.5-3.6h-4.4v11h2v-3.9h0.8l2.6,3.9h2.5l-2.8-3.9
		C269.4,433.2,270.2,431.7,270.2,430.1z M266.5,431.8h-2.2v-3.4h2.3c1,0,1.5,0.9,1.5,1.7C268.1,430.9,267.6,431.8,266.5,431.8z"></path>
	<polygon data-number="3" class="triangle-name triangle-name--four" points="277,430.7 274.2,426.5 271.8,426.5 276,432.5 276,437.5 278,437.5 278,432.5 282.3,426.5 279.9,426.5 
			"></polygon>
	<path data-number="3" class="triangle-name triangle-name--four" d="M290.9,431.6c1.1-0.4,1.5-1.4,1.4-2.1c0-1.8-1.3-3-3.2-3h-4.3v11h4.7c2.1,0,3.4-1.5,3.4-3.3
		C292.9,433.2,292.3,431.9,290.9,431.6z M287,428.3h2.1c0.8,0,1.2,0.5,1.2,1.3c0,0.7-0.5,1.3-1.2,1.3H287V428.3z M289.4,435.7h-2.5
		v-3h2.5c0.9,0,1.4,0.8,1.4,1.5S290.3,435.7,289.4,435.7z"></path>
	<path data-number="3" class="triangle-name triangle-name--four" d="M302.5,433.6c0,1.3-1,2.1-2.2,2.1c-1.1,0-2.1-0.8-2.1-2.1v-7.1h-2.1v7.1c0,2.4,2,4,4.2,4c2.3,0,4.2-1.5,4.2-4
		v-7.1h-2V433.6z"></path>
	<path data-number="3" class="triangle-name triangle-name--four" d="M313.2,435.6c-2,0-3.5-1.7-3.5-3.7s1.5-3.7,3.5-3.7c1.2,0,2.2,0.6,2.8,1.4l1.6-1.2c-0.9-1.4-2.5-2.2-4.4-2.2
		c-3.2,0-5.6,2.6-5.6,5.7c0,3.2,2.5,5.7,5.6,5.7c1.9,0,3.5-0.8,4.5-2.2l-1.6-1.3C315.4,435,314.4,435.6,313.2,435.6z"></path>
	<path data-number="3" class="triangle-name triangle-name--four" d="M320.8,437.6c0,0.9-0.4,1.7-1.5,1.7c-0.1,0-0.9-0.1-1.3-0.2l-0.2,2c0.5,0.1,1.2,0.2,1.5,0.2
		c2.5,0,3.5-1.7,3.5-3.7v-11.1h-2V437.6z"></path>
	<path data-number="3" class="triangle-name triangle-name--four" d="M331.7,426.5h-2.2l-4.1,11h2.2l1-2.7h4.1l0.9,2.7h2.2L331.7,426.5z M329.3,433l1.4-4.2l1.4,4.2H329.3z"></path>
</g>
<!-- triangle four END -->

<!-- triangle five -->
<path class="triangle triangle--five" d="M227.3,270.1c15.3,0,24.9,16.6,17.3,29.9L140.9,479.6c-7.7,13.3-26.9,13.3-34.5,0L2.7,300
	C-5,286.7,4.6,270.1,20,270.1H227.3z" data-number="4"></path>
<g>
	<path data-number="4" class="triangle-name triangle-name--five" d="M111.3,318.6h-2v7.1c0,1.3-1,2.1-2.2,2.1c-1.1,0-2.1-0.8-2.1-2.1v-7.1h-2.1v7.1c0,2.4,2,4,4.2,4
		c2.3,0,4.2-1.5,4.2-4V318.6z"></path>
	<path data-number="4" class="triangle-name triangle-name--five" d="M118.5,328c-1.2,0-1.9-0.8-1.9-1.6c0,0,0,0.1,0,0.1h-2c0,1.9,1.6,3.4,4,3.4c2,0,3.8-1.1,3.9-3.1
		c0.1-1.3-0.5-2.7-3-3.4l-1.4-0.4c-1.2-0.4-1.3-0.9-1.3-1.3c0-0.8,0.7-1.3,1.6-1.3c1,0,1.6,0.5,1.6,1.4h2c0-2-1.6-3.3-3.7-3.3
		c-2,0-3.7,1.3-3.7,3.2c0,1,0.4,2.4,2.8,3.1l1.4,0.4c1.1,0.3,1.5,0.8,1.5,1.5S119.6,328,118.5,328z"></path>
	<polygon data-number="4" class="triangle-name triangle-name--five" points="132.5,327.8 127.7,327.8 127.7,325.1 131.9,325.1 131.9,323.3 127.7,323.3 127.7,320.4 132.4,320.4 
		132.4,318.6 125.7,318.6 125.6,329.6 132.5,329.6 	"></polygon>
	<path data-number="4" class="triangle-name triangle-name--five" d="M141.2,325.7c2-0.4,2.8-1.9,2.8-3.5c0-1.8-1.1-3.6-3.5-3.6h-4.4v11h2v-3.9h0.8l2.6,3.9h2.5L141.2,325.7z
		 M138.1,323.9v-3.4h2.3c1,0,1.5,0.9,1.5,1.7c0,0.8-0.5,1.7-1.6,1.7H138.1z"></path>
	<path data-number="4" class="triangle-name triangle-name--five" d="M79.1,345.8v1.7h3c-0.1,1.4-1.5,2.3-3,2.3c-2,0-3.6-1.8-3.6-3.8s1.6-3.7,3.6-3.7c1,0,1.9,0.4,2.5,1.1l1.6-1.4
		c-1-1-2.4-1.7-4-1.7c-3.1,0-5.6,2.6-5.6,5.7c0,3.2,2.4,5.7,5.6,5.7c3.1,0,5.3-1.9,5.3-5.9H79.1z"></path>
	<polygon data-number="4" class="triangle-name triangle-name--five" points="89.5,347.1 93.7,347.1 93.7,345.3 89.5,345.3 89.5,342.4 94.3,342.4 94.3,340.6 87.5,340.6 
		87.4,351.6 94.4,351.6 94.4,349.8 89.5,349.8 	"></polygon>
	<polygon data-number="4" class="triangle-name triangle-name--five" points="99.9,344.3 104.2,351.6 106,351.6 106,340.6 104,340.6 104,347.8 99.8,340.6 97.9,340.6 97.9,351.6 
		99.9,351.6 	"></polygon>
	<polygon data-number="4" class="triangle-name triangle-name--five" points="117.1,349.8 112.2,349.8 112.2,347.1 116.4,347.1 116.4,345.3 112.2,345.3 112.2,342.4 117,342.4 
		117,340.6 110.2,340.6 110.1,351.6 117.1,351.6 	"></polygon>
	<path data-number="4" class="triangle-name triangle-name--five" d="M122.6,347.7h0.8l2.6,3.9h2.5l-2.8-3.9c2-0.4,2.8-1.9,2.8-3.5c0-1.8-1.1-3.6-3.5-3.6h-4.4v11h2V347.7z
		 M122.6,342.5h2.3c1,0,1.5,0.9,1.5,1.7c0,0.8-0.5,1.7-1.6,1.7h-2.2V342.5z"></path>
	<path data-number="4" class="triangle-name triangle-name--five" d="M134.6,340.6l-4.1,11h2.2l1-2.7h4.1l1,2.7h2.1l-4.1-11H134.6z M134.4,347.1l1.4-4.2l1.4,4.2H134.4z"></path>
	<polygon data-number="4" class="triangle-name triangle-name--five" points="144.9,351.7 147,351.7 147,342.5 150.1,342.5 150.1,340.6 141.8,340.6 141.8,342.5 144.9,342.5 	"></polygon>
	<polygon data-number="4" class="triangle-name triangle-name--five" points="160.1,349.8 155.2,349.8 155.2,347.1 159.4,347.1 159.4,345.3 155.2,345.3 155.2,342.4 160,342.4 
		160,340.6 153.2,340.6 153.1,351.6 160.1,351.6 	"></polygon>
	<path data-number="4" class="triangle-name triangle-name--five" d="M168,340.6h-4.3v11h4.3c3.2,0,5-2.4,5-5.5S171.2,340.6,168,340.6z M168,349.7h-2.3v-7.3h2.3
		c1.9,0,2.9,1.7,2.9,3.7S170,349.7,168,349.7z"></path>
	<path data-number="4" class="triangle-name triangle-name--five" d="M89.2,371.7c-2,0-3.5-1.7-3.5-3.7s1.5-3.7,3.5-3.7c1.2,0,2.2,0.6,2.8,1.4l1.6-1.2c-0.9-1.4-2.5-2.2-4.4-2.2
		c-3.2,0-5.6,2.6-5.6,5.7c0,3.2,2.5,5.7,5.6,5.7c1.9,0,3.5-0.8,4.5-2.2l-1.6-1.3C91.4,371.1,90.4,371.7,89.2,371.7z"></path>
	<path data-number="4" class="triangle-name triangle-name--five" d="M101.6,362.4c-3.1,0-5.6,2.6-5.6,5.7c0,3.2,2.5,5.7,5.6,5.7c3.1,0,5.6-2.6,5.6-5.7
		C107.2,364.9,104.7,362.4,101.6,362.4z M101.6,371.7c-2,0-3.6-1.6-3.6-3.6s1.6-3.6,3.6-3.6c2,0,3.6,1.6,3.6,3.6
		S103.6,371.7,101.6,371.7z"></path>
	<polygon data-number="4" class="triangle-name triangle-name--five" points="116.7,369.8 112.5,362.6 110.6,362.6 110.6,373.6 112.6,373.6 112.6,366.3 116.9,373.6 118.7,373.6 
		118.7,362.6 116.7,362.6 	"></polygon>
	<polygon data-number="4" class="triangle-name triangle-name--five" points="121.8,364.5 124.9,364.5 124.9,373.7 127,373.7 127,364.5 130.1,364.5 130.1,362.6 121.8,362.6 	"></polygon>
	<polygon data-number="4" class="triangle-name triangle-name--five" points="135.1,369.1 139.3,369.1 139.3,367.3 135.1,367.3 135.1,364.4 139.9,364.4 139.9,362.6 133.1,362.6 
		133,373.6 140,373.6 140,371.8 135.1,371.8 	"></polygon>
	<polygon data-number="4" class="triangle-name triangle-name--five" points="149.6,362.6 149.6,369.8 145.4,362.6 143.5,362.6 143.5,373.6 145.5,373.6 145.5,366.3 149.8,373.6 
		151.7,373.6 151.6,362.6 	"></polygon>
	<polygon data-number="4" class="triangle-name triangle-name--five" points="154.8,364.5 157.9,364.5 157.9,373.7 160,373.7 160,364.5 163.1,364.5 163.1,362.6 154.8,362.6 	"></polygon>
</g>
<!-- triangle five END -->

<!-- triangle six -->
<path class="triangle triangle--six" d="M20.2,250c-15.3,0-24.9-16.6-17.3-29.9L106.6,40.4c7.7-13.3,26.9-13.3,34.5,0l103.7,179.6
	c7.7,13.3-1.9,29.9-17.3,29.9H20.2z" data-number="5"></path>
<g>
	<path data-number="5" class="triangle-name triangle-name--six" d="M97.9,175l-4.1-11h-2.2l-4.1,11h2.2l1-2.7h4.1l0.9,2.7H97.9z M91.4,170.5l1.4-4.2l1.4,4.2H91.4z"></path>
	<polygon data-number="5" class="triangle-name triangle-name--six" points="106.7,164 106.7,171.2 102.5,164 100.6,164 100.6,175 102.6,175 102.6,167.7 106.9,175 108.7,175 
		108.7,164 	"></polygon>
	<path data-number="5" class="triangle-name triangle-name--six" d="M117.6,164h-2.2l-4.1,11h2.2l1-2.7h4.1l0.9,2.7h2.2L117.6,164z M115.2,170.5l1.4-4.2l1.4,4.2H115.2z"></path>
	<polygon data-number="5" class="triangle-name triangle-name--six" points="130.8,173.2 126.5,173.2 126.5,164 124.5,164 124.5,175 130.8,175 	"></polygon>
	<rect data-number="5" x="133.8" y="164" class="triangle-name triangle-name--six" width="2" height="11"></rect>
	<polygon data-number="5" class="triangle-name triangle-name--six" points="147.1,173.2 141.7,173.2 147.1,165.6 147.1,164 139.4,164 139.4,165.8 144.5,165.8 139.1,173.4 
		139.1,175 147.1,175 	"></polygon>
	<path data-number="5" class="triangle-name triangle-name--six" d="M152.4,172.3h4.1l0.9,2.7h2.2l-4.1-11h-2.2l-4.1,11h2.2L152.4,172.3z M154.5,166.3l1.4,4.2h-2.8L154.5,166.3z"></path>
	<rect data-number="5" x="50.7" y="186" class="triangle-name triangle-name--six" width="2" height="11"></rect>
	<path data-number="5" class="triangle-name triangle-name--six" d="M69.9,189.6c0-1.8-1.1-3.6-3.5-3.6H62v11h2v-3.9h0.8l2.6,3.9h2.5l-2.8-3.9C69.1,192.7,69.9,191.2,69.9,189.6z
		 M66.2,191.3H64v-3.4h2.3c1,0,1.5,0.9,1.5,1.7S67.3,191.3,66.2,191.3z"></path>
	<path data-number="5" class="triangle-name triangle-name--six" d="M76.1,186L72,197h2.2l1-2.7h4.1l0.9,2.7h2.2l-4.1-11H76.1z M75.8,192.5l1.4-4.2l1.4,4.2H75.8z"></path>
	<path data-number="5" class="triangle-name triangle-name--six" d="M89.6,186h-4.5l0.1,11h2v-3.9h2.4c2.4,0,3.5-1.7,3.5-3.5S92,186,89.6,186z M89.4,191.3h-2.3v-3.4h2.4
		c1,0,1.5,0.9,1.5,1.7S90.5,191.3,89.4,191.3z"></path>
	<path data-number="5" class="triangle-name triangle-name--six" d="M101.1,185.8c-3.2,0-5.6,2.6-5.6,5.7c0,3.2,2.5,5.7,5.6,5.7s5.6-2.6,5.6-5.7
		C106.7,188.3,104.2,185.8,101.1,185.8z M101.1,195.1c-2,0-3.6-1.6-3.6-3.6s1.6-3.6,3.6-3.6s3.6,1.6,3.6,3.6
		S103.1,195.1,101.1,195.1z"></path>
	<path data-number="5" class="triangle-name triangle-name--six" d="M117.9,189.6c0-1.8-1.1-3.6-3.5-3.6h-4.4v11h2v-3.9h0.8l2.6,3.9h2.5l-2.8-3.9
		C117.1,192.7,117.9,191.2,117.9,189.6z M114.2,191.3h-2.2v-3.4h2.3c1,0,1.5,0.9,1.5,1.7S115.3,191.3,114.2,191.3z"></path>
	<polygon data-number="5" class="triangle-name triangle-name--six" points="120.3,187.9 123.4,187.9 123.4,197.1 125.5,197.1 125.5,187.9 128.6,187.9 128.6,186 120.3,186 	"></polygon>
	<path data-number="5" class="triangle-name triangle-name--six" d="M136.3,185.8c-3.1,0-5.6,2.6-5.6,5.7c0,3.2,2.5,5.7,5.6,5.7s5.6-2.6,5.6-5.7
		C141.9,188.3,139.4,185.8,136.3,185.8z M136.3,195.1c-2,0-3.6-1.6-3.6-3.6s1.6-3.6,3.6-3.6s3.6,1.6,3.6,3.6
		S138.3,195.1,136.3,195.1z"></path>
	<polygon data-number="5" class="triangle-name triangle-name--six" points="153.4,193.7 151.7,187.6 150.1,187.6 148.4,193.7 146,186 143.8,186 147.5,197 149.2,197 150.9,190.7 
		152.6,197 154.2,197 157.9,186 155.7,186 	"></polygon>
	<path data-number="5" class="triangle-name triangle-name--six" d="M162.8,186l-4.1,11h2.2l1-2.7h4.1l0.9,2.7h2.2l-4.1-11H162.8z M162.6,192.5l1.4-4.2l1.4,4.2H162.6z"></path>
	<polygon data-number="5" class="triangle-name triangle-name--six" points="177.9,186 177.9,193.2 173.7,186 171.8,186 171.8,197 173.8,197 173.8,189.7 178.1,197 179.9,197 
		179.9,186 	"></polygon>
	<rect data-number="5" x="184.1" y="186" class="triangle-name triangle-name--six" width="2" height="11"></rect>
	<polygon data-number="5" class="triangle-name triangle-name--six" points="192.1,195.2 192.1,192.5 196.3,192.5 196.3,190.7 192.1,190.7 192.1,187.8 196.9,187.8 196.9,186 
		190.1,186 190,197 197,197 197,195.2 	"></polygon>
</g>
<!-- triangle six END -->


<!-- circles -->

<ellipse data-number="0" class="triangle-circle triangle-circle--one triangle-circle--one--full triangle-circle--full" cx="341.8" cy="146" rx="32" ry="32"></ellipse>
<!-- arrow one -->
<line data-number="0" id="Line_169-4_1_" class="triangle-arrow triangle-arrow--one triangle-circle--one--full triangle-circle--full" x1="333.3" y1="137.6" x2="349.9" y2="154.3"></line>
<line data-number="0" id="Line_170-4_1_" class="triangle-arrow triangle-arrow--one triangle-circle--one--full triangle-circle--full" x1="336.9" y1="154.5" x2="350.3" y2="154.6"></line>
<line data-number="0" id="Line_171-4_1_" class="triangle-arrow triangle-arrow--one triangle-circle--one--full triangle-circle--full" x1="350.2" y1="141.2" x2="350.3" y2="154.6"></line>
<!-- arrow one END -->

<ellipse data-number="1" class="triangle-circle triangle-circle--two triangle-circle--two--full triangle-circle--full" cx="386" cy="258.3" rx="32" ry="32"></ellipse>
<!-- arrow two -->
<g>
	<line data-number="1" id="Line_169-3_2_" class="triangle-arrow triangle-arrow--two triangle-circle--two--full triangle-circle--full" x1="386.6" y1="247.9" x2="386.6" y2="271.5"></line>
	<polyline data-number="1" id="Line_171-3_2_" class="triangle-arrow triangle-arrow--two triangle-circle--two--full triangle-circle--full" points="396,262 386.6,271.5 377.1,262 	"></polyline>
</g>
<!-- arrow two END -->

<ellipse data-number="2" class="triangle-circle triangle-circle--three triangle-circle--three--full triangle-circle--full" cx="342.1" cy="370.6" rx="32" ry="32"></ellipse>
<!-- arrow three -->
<g>
	<line data-number="2" id="Line_169-3_3_" class="triangle-arrow triangle-arrow--three triangle-circle--three--full triangle-circle--full" x1="349.6" y1="363.3" x2="332.9" y2="380"></line>
	<polyline data-number="2" id="Line_171-3_3_" class="triangle-arrow triangle-arrow--three triangle-circle--three--full triangle-circle--full" points="346.3,379.9 332.9,380 332.9,366.6 	"></polyline>
</g>
<!-- arrow three END -->

<ellipse data-number="3" class="triangle-circle triangle-circle--four triangle-circle--four--full triangle-circle--full" cx="212.4" cy="370.6" rx="32" ry="32"></ellipse>
<!-- arrow four -->
<g>
	<line data-number="3" id="Line_169-3_4_" class="triangle-arrow triangle-arrow--four triangle-circle--four--full triangle-circle--full" x1="219.8" y1="378" x2="203.1" y2="361.4"></line>
	<polyline data-number="3" id="Line_171-3_4_" class="triangle-arrow triangle-arrow--four triangle-circle--four--full triangle-circle--full" points="203.1,374.8 203,361.4 216.5,361.4 	"></polyline>
</g>
<!-- arrow four END -->

<ellipse data-number="4" class="triangle-circle triangle-circle--five triangle-circle--five--full triangle-circle--full" cx="164.8" cy="258.3" rx="32" ry="32"></ellipse>
<!-- arrow five -->
<g>
	<line data-number="4" id="Line_169-3_1_" class="triangle-arrow triangle-arrow--five triangle-circle--five--full triangle-circle--full" x1="164.7" y1="268.8" x2="164.7" y2="245.2"></line>
	<polyline data-number="4" id="Line_171-3_1_" class="triangle-arrow triangle-arrow--five triangle-circle--five--full triangle-circle--full" points="155.2,254.7 164.6,245.2 174.1,254.7 	"></polyline>
</g>
<!-- arrow five END -->

<ellipse data-number="5" class="triangle-circle triangle-circle--six triangle-circle--six--full triangle-circle--full" cx="209.3" cy="145.9" rx="32" ry="32"></ellipse>
<!-- arrow six -->
<g>
	<line data-number="5" id="Line_169-3_5_" class="triangle-arrow triangle-arrow--six triangle-circle--six--full triangle-circle--full" x1="200.9" y1="153.2" x2="217.6" y2="136.6"></line>
	<polyline data-number="5" id="Line_171-3_5_" class="triangle-arrow triangle-arrow--six triangle-circle--six--full triangle-circle--full" points="204.2,136.6 217.6,136.5 217.6,150 	"></polyline>
</g>
<!-- arrow six END -->

<!-- circles END -->


</svg>