<svg xmlns="http://www.w3.org/2000/svg" width="60.291" height="51.625" viewBox="0 0 60.291 51.625"><defs><style>.a,.b{fill:none;stroke:#008bff;stroke-linecap:round;stroke-miterlimit:10;stroke-width:2px;}.b{stroke-linejoin:round;}</style></defs><g transform="translate(1 1)"><path class="a" d="M2024.04,1083.2a22.954,22.954,0,1,0,6.2,11.285" transform="translate(-1984.74 -1076.456)"/><path class="a" d="M2044.96,1118.044a13.139,13.139,0,1,0,3.733,6.738" transform="translate(-2012.781 -1104.497)"/><path class="a" d="M2056.29,1142.023a5.983,5.983,0,1,0,5.983,5.983" transform="translate(-2033.27 -1124.986)"/><line class="a" x1="4.139" y2="6.595" transform="translate(6.563 42.651)"/><line class="a" x2="4.139" y2="6.595" transform="translate(35.34 42.651)"/><line class="a" y1="11.063" x2="20.142" transform="translate(23.02 11.957)"/><path class="a" d="M2156.6,1107.6l-5.758-1.531,1.532-5.757" transform="translate(-2107.684 -1094.117)"/><path class="a" d="M2174.208,1097.6l-5.757-1.531,1.531-5.757" transform="translate(-2120.715 -1086.712)"/><path class="a" d="M2191.808,1087.594l-5.757-1.531,1.532-5.757" transform="translate(-2133.741 -1079.306)"/><path class="b" d="M2073.266,1149.176l-.619,2.955,2.324,1.041" transform="translate(-2049.804 -1129.056)"/></g></svg>